<?xml version="1.0" standalone="no"?>
<!DOCTYPE svg PUBLIC "-//W3C//DTD SVG 20010904//EN"
 "http://www.w3.org/TR/2001/REC-SVG-20010904/DTD/svg10.dtd">
<svg version="1.0" xmlns="http://www.w3.org/2000/svg"
 width="326.000000pt" height="188.000000pt" viewBox="0 0 326.000000 188.000000"
 preserveAspectRatio="xMidYMid meet">

<g transform="translate(0.000000,188.000000) scale(0.100000,-0.100000)"
fill="#000000" stroke="none">
<path d="M0 1445 l0 -435 1630 0 1630 0 0 435 0 435 -1630 0 -1630 0 0 -435z
m496 301 c61 -29 104 -80 111 -136 l6 -40 -105 0 c-103 0 -105 0 -116 26 -14
30 -55 30 -60 1 -6 -28 12 -42 106 -83 146 -63 182 -101 182 -189 0 -61 -19
-103 -64 -142 -74 -65 -209 -79 -314 -33 -75 33 -111 76 -127 148 l-7 32 106
0 c104 0 107 -1 118 -25 13 -30 65 -36 75 -9 11 29 -12 48 -104 84 -113 44
-156 77 -178 134 -35 92 2 182 94 229 47 23 67 27 140 27 69 0 96 -5 137 -24z
m444 -91 l0 -114 95 -3 94 -3 3 115 3 115 95 0 95 0 3 -317 2 -318 -100 0 -99
0 -3 123 -3 122 -90 -2 -90 -2 -3 -120 -3 -121 -99 0 -100 0 0 313 c0 173 3
316 6 319 3 4 48 6 100 6 l94 0 0 -113z m991 87 c64 -31 117 -85 148 -151 22
-47 26 -70 26 -146 0 -83 -2 -95 -34 -153 -37 -68 -83 -110 -158 -145 -74 -34
-199 -31 -275 6 -141 69 -212 235 -169 394 24 90 117 186 205 213 17 5 72 8
121 7 71 -2 100 -7 136 -25z m502 -1 c3 -14 15 -101 28 -194 13 -92 26 -161
30 -155 3 7 23 92 44 188 20 96 39 177 42 180 10 10 203 7 211 -4 5 -6 26 -93
48 -194 21 -102 41 -174 45 -165 3 10 16 92 29 183 13 91 27 169 32 175 5 5
54 10 109 11 97 1 100 0 96 -20 -3 -12 -36 -155 -73 -319 l-68 -298 -125 3
-125 3 -35 172 c-20 95 -36 171 -38 170 -1 -2 -14 -59 -28 -127 -14 -69 -30
-146 -36 -172 l-11 -48 -123 0 c-109 0 -124 2 -129 18 -23 77 -136 598 -132
609 5 11 28 14 105 12 98 -1 99 -2 104 -28z"/>
<path d="M1723 1574 c-78 -39 -85 -196 -12 -248 37 -26 120 -21 152 8 54 50
58 162 8 218 -33 37 -99 47 -148 22z"/>
<path d="M1390 872 c-127 -48 -213 -124 -267 -238 -101 -212 -12 -466 199
-571 88 -44 179 -58 265 -43 72 12 186 66 222 104 l21 22 -49 48 -48 47 -49
-30 c-97 -62 -195 -69 -292 -20 -70 34 -105 71 -139 146 -87 188 56 406 267
407 69 0 145 -27 185 -64 21 -20 21 -19 73 33 l52 53 -32 24 c-51 39 -100 66
-153 84 -64 21 -195 20 -255 -2z"/>
<path d="M2818 871 c-71 -29 -104 -56 -132 -113 -28 -57 -35 -143 -15 -195 28
-74 132 -146 276 -189 119 -35 163 -69 163 -125 0 -49 -30 -83 -88 -99 -55
-14 -115 -4 -185 33 l-58 30 -46 -46 c-56 -55 -53 -60 47 -106 148 -68 307
-62 399 15 71 59 103 192 65 267 -41 82 -139 147 -287 191 -136 41 -180 99
-133 171 47 72 198 70 279 -2 17 -16 21 -14 70 36 51 51 51 52 32 68 -11 8
-49 29 -84 46 -54 26 -78 31 -160 34 -77 3 -105 0 -143 -16z"/>
<path d="M0 450 l0 -420 70 0 70 0 0 155 c0 85 3 155 8 155 4 0 79 -72 167
-160 l160 -160 92 0 c51 0 93 3 93 7 0 4 -93 101 -207 215 l-208 208 210 210
210 210 -100 0 -100 0 -155 -155 c-85 -85 -158 -155 -162 -155 -5 0 -8 70 -8
155 l0 155 -70 0 -70 0 0 -420z"/>
<path d="M800 450 l0 -420 70 0 70 0 0 420 0 420 -70 0 -70 0 0 -420z"/>
<path d="M1950 450 l0 -420 75 0 75 0 0 157 0 157 163 -161 162 -161 98 1 98
1 -213 213 -213 213 210 210 210 210 -100 0 -100 0 -157 -157 -158 -158 0 158
0 157 -75 0 -75 0 0 -420z"/>
</g>
</svg>
